<svg width="61" height="60" viewBox="0 0 61 60" fill="none" xmlns="http://www.w3.org/2000/svg">
<circle cx="30.5" cy="30" r="30" fill="#F5CA16"/>
<path d="M36.75 37.5H24.25C24.0842 37.5 23.9253 37.4342 23.8081 37.3169C23.6908 37.1997 23.625 37.0408 23.625 36.875C23.625 36.7092 23.6908 36.5503 23.8081 36.4331C23.9253 36.3158 24.0842 36.25 24.25 36.25H36.75C36.9158 36.25 37.0747 36.3158 37.1919 36.4331C37.3092 36.5503 37.375 36.7092 37.375 36.875C37.375 37.0408 37.3092 37.1997 37.1919 37.3169C37.0747 37.4342 36.9158 37.5 36.75 37.5ZM48.625 37.5H44.25C44.0842 37.5 43.9253 37.4342 43.8081 37.3169C43.6908 37.1997 43.625 37.0408 43.625 36.875C43.625 36.7092 43.6908 36.5503 43.8081 36.4331C43.9253 36.3158 44.0842 36.25 44.25 36.25H48.625C48.7908 36.25 48.9497 36.3158 49.0669 36.4331C49.1842 36.5503 49.25 36.7092 49.25 36.875C49.25 37.0408 49.1842 37.1997 49.0669 37.3169C48.9497 37.4342 48.7908 37.5 48.625 37.5ZM20.5 42.5C19.8819 42.5 19.2777 42.3167 18.7638 41.9733C18.2499 41.63 17.8494 41.1419 17.6129 40.5709C17.3764 39.9999 17.3145 39.3715 17.435 38.7653C17.5556 38.1592 17.8533 37.6023 18.2903 37.1653C18.7273 36.7283 19.2842 36.4306 19.8903 36.31C20.4965 36.1895 21.1249 36.2514 21.6959 36.4879C22.2669 36.7244 22.755 37.1249 23.0983 37.6388C23.4417 38.1527 23.625 38.7569 23.625 39.375C23.624 40.2035 23.2945 40.9978 22.7086 41.5836C22.1228 42.1694 21.3285 42.499 20.5 42.5ZM20.5 37.5C20.1292 37.5 19.7666 37.61 19.4583 37.816C19.15 38.022 18.9096 38.3149 18.7677 38.6575C18.6258 39.0001 18.5887 39.3771 18.661 39.7408C18.7334 40.1045 18.912 40.4386 19.1742 40.7008C19.4364 40.963 19.7705 41.1416 20.1342 41.214C20.4979 41.2863 20.8749 41.2492 21.2175 41.1073C21.5601 40.9654 21.853 40.725 22.059 40.4167C22.265 40.1084 22.375 39.7458 22.375 39.375C22.375 38.8777 22.1775 38.4008 21.8258 38.0492C21.4742 37.6975 20.9973 37.5 20.5 37.5Z" fill="black"/>
<path d="M48.625 40H44.875C44.7092 40 44.5503 39.9342 44.4331 39.817C44.3158 39.6997 44.25 39.5408 44.25 39.375C44.25 38.3804 43.8549 37.4266 43.1517 36.7234C42.4484 36.0201 41.4946 35.625 40.5 35.625C39.5054 35.625 38.5516 36.0201 37.8484 36.7234C37.1451 37.4266 36.75 38.3804 36.75 39.375C36.75 39.5408 36.6842 39.6997 36.5669 39.817C36.4497 39.9342 36.2908 40 36.125 40H24.875C24.7092 40 24.5503 39.9342 24.4331 39.817C24.3158 39.6997 24.25 39.5408 24.25 39.375C24.25 38.3804 23.8549 37.4266 23.1517 36.7234C22.4484 36.0201 21.4946 35.625 20.5 35.625C19.5054 35.625 18.5516 36.0201 17.8484 36.7234C17.1451 37.4266 16.75 38.3804 16.75 39.375C16.75 39.5408 16.6842 39.6997 16.5669 39.817C16.4497 39.9342 16.2908 40 16.125 40C15.9592 40 15.8003 39.9342 15.6831 39.817C15.5658 39.6997 15.5 39.5408 15.5 39.375C15.4991 38.1025 15.9833 36.8775 16.8542 35.9496C17.725 35.0217 18.9169 34.4608 20.1869 34.3811C21.4569 34.3014 22.7096 34.709 23.6895 35.5207C24.6695 36.3325 25.3031 37.4873 25.4613 38.75H35.5388C35.6902 37.541 36.2778 36.4288 37.1914 35.6225C38.105 34.8162 39.2815 34.3713 40.5 34.3713C41.7185 34.3713 42.895 34.8162 43.8086 35.6225C44.7222 36.4288 45.3098 37.541 45.4613 38.75H48V32.8863L44.5956 31.1875C44.4584 31.119 44.3512 31.0024 44.2944 30.86L40.8569 22.2713C40.8116 22.1547 40.7322 22.0545 40.629 21.9838C40.5259 21.9131 40.4038 21.8752 40.2788 21.875H33.625V33.125C33.625 33.2908 33.5592 33.4497 33.4419 33.567C33.3247 33.6842 33.1658 33.75 33 33.75H16.125C15.9592 33.75 15.8003 33.6842 15.6831 33.567C15.5658 33.4497 15.5 33.2908 15.5 33.125C15.5 32.9592 15.5658 32.8003 15.6831 32.6831C15.8003 32.5659 15.9592 32.5 16.125 32.5H32.375V21.25C32.375 21.0842 32.4408 20.9253 32.5581 20.8081C32.6753 20.6909 32.8342 20.625 33 20.625H40.2788C40.6538 20.6238 41.0205 20.7357 41.3311 20.9459C41.6417 21.1562 41.8818 21.4551 42.02 21.8038L45.3669 30.1719L48.9044 31.9406C49.0083 31.9926 49.0956 32.0724 49.1567 32.1712C49.2177 32.27 49.2501 32.3839 49.25 32.5V39.375C49.25 39.5408 49.1842 39.6997 49.0669 39.817C48.9497 39.9342 48.7908 40 48.625 40Z" fill="black"/>
<path d="M40.5 42.5C39.8819 42.5 39.2777 42.3167 38.7638 41.9733C38.2499 41.63 37.8494 41.1419 37.6129 40.5709C37.3764 39.9999 37.3145 39.3715 37.435 38.7653C37.5556 38.1592 37.8533 37.6023 38.2903 37.1653C38.7273 36.7283 39.2842 36.4306 39.8903 36.31C40.4965 36.1895 41.1249 36.2514 41.6959 36.4879C42.2669 36.7244 42.755 37.1249 43.0983 37.6388C43.4417 38.1527 43.625 38.7569 43.625 39.375C43.624 40.2035 43.2944 40.9978 42.7086 41.5836C42.1228 42.1694 41.3285 42.499 40.5 42.5ZM40.5 37.5C40.1292 37.5 39.7666 37.61 39.4583 37.816C39.15 38.022 38.9096 38.3149 38.7677 38.6575C38.6258 39.0001 38.5887 39.3771 38.661 39.7408C38.7334 40.1045 38.912 40.4386 39.1742 40.7008C39.4364 40.963 39.7705 41.1416 40.1342 41.214C40.4979 41.2863 40.8749 41.2492 41.2175 41.1073C41.5601 40.9654 41.853 40.725 42.059 40.4167C42.265 40.1084 42.375 39.7458 42.375 39.375C42.375 38.8777 42.1775 38.4008 41.8258 38.0492C41.4742 37.6975 40.9973 37.5 40.5 37.5ZM41.75 31.25H35.5C35.3342 31.25 35.1753 31.1842 35.0581 31.0669C34.9408 30.9497 34.875 30.7908 34.875 30.625V23.75C34.875 23.5842 34.9408 23.4253 35.0581 23.3081C35.1753 23.1908 35.3342 23.125 35.5 23.125H39.25C39.3783 23.125 39.5035 23.1644 39.6086 23.238C39.7137 23.3116 39.7936 23.4157 39.8375 23.5363L42.3375 30.4113C42.3719 30.5057 42.383 30.607 42.3698 30.7066C42.3567 30.8063 42.3198 30.9013 42.2621 30.9836C42.2044 31.0659 42.1278 31.1331 42.0387 31.1794C41.9495 31.2258 41.8505 31.25 41.75 31.25ZM36.125 30H40.8575L38.8125 24.375H36.125V30ZM33 21.875C32.8342 21.875 32.6753 21.8092 32.5581 21.6919C32.4408 21.5747 32.375 21.4158 32.375 21.25V18.75H18.625C18.4592 18.75 18.3003 18.6842 18.1831 18.5669C18.0658 18.4497 18 18.2908 18 18.125C18 17.9592 18.0658 17.8003 18.1831 17.6831C18.3003 17.5658 18.4592 17.5 18.625 17.5H33C33.1658 17.5 33.3247 17.5658 33.4419 17.6831C33.5592 17.8003 33.625 17.9592 33.625 18.125V21.25C33.625 21.4158 33.5592 21.5747 33.4419 21.6919C33.3247 21.8092 33.1658 21.875 33 21.875ZM16.125 18.75H14.25C14.0842 18.75 13.9253 18.6842 13.8081 18.5669C13.6908 18.4497 13.625 18.2908 13.625 18.125C13.625 17.9592 13.6908 17.8003 13.8081 17.6831C13.9253 17.5658 14.0842 17.5 14.25 17.5H16.125C16.2908 17.5 16.4497 17.5658 16.5669 17.6831C16.6842 17.8003 16.75 17.9592 16.75 18.125C16.75 18.2908 16.6842 18.4497 16.5669 18.5669C16.4497 18.6842 16.2908 18.75 16.125 18.75ZM21.75 23.125H13C12.8342 23.125 12.6753 23.0592 12.5581 22.9419C12.4408 22.8247 12.375 22.6658 12.375 22.5C12.375 22.3342 12.4408 22.1753 12.5581 22.0581C12.6753 21.9408 12.8342 21.875 13 21.875H21.75C21.9158 21.875 22.0747 21.9408 22.1919 22.0581C22.3092 22.1753 22.375 22.3342 22.375 22.5C22.375 22.6658 22.3092 22.8247 22.1919 22.9419C22.0747 23.0592 21.9158 23.125 21.75 23.125ZM17.9219 28.75H12.375C12.2092 28.75 12.0503 28.6842 11.9331 28.5669C11.8158 28.4497 11.75 28.2908 11.75 28.125C11.75 27.9592 11.8158 27.8003 11.9331 27.6831C12.0503 27.5658 12.2092 27.5 12.375 27.5H17.9219C18.0876 27.5 18.2466 27.5658 18.3638 27.6831C18.481 27.8003 18.5469 27.9592 18.5469 28.125C18.5469 28.2908 18.481 28.4497 18.3638 28.5669C18.2466 28.6842 18.0876 28.75 17.9219 28.75ZM13.625 33.75H12.375C12.2092 33.75 12.0503 33.6842 11.9331 33.5669C11.8158 33.4497 11.75 33.2908 11.75 33.125C11.75 32.9592 11.8158 32.8003 11.9331 32.6831C12.0503 32.5658 12.2092 32.5 12.375 32.5H13.625C13.7908 32.5 13.9497 32.5658 14.0669 32.6831C14.1842 32.8003 14.25 32.9592 14.25 33.125C14.25 33.2908 14.1842 33.4497 14.0669 33.5669C13.9497 33.6842 13.7908 33.75 13.625 33.75Z" fill="black"/>
</svg>
