<svg width="24" height="24" viewBox="0 0 24 24" fill="none" xmlns="http://www.w3.org/2000/svg">
<path d="M20.2909 3.41044C15.5828 -1.13681 8.11859 -1.13681 3.41046 3.41044C-1.25097 8.23678 -1.11728 15.9281 3.70907 20.5895C8.4172 25.1368 15.8814 25.1368 20.5895 20.5895C25.251 15.7632 25.1173 8.07187 20.2909 3.41044ZM20.0185 20.0185L20.0145 20.0145C15.5842 24.4407 8.40453 24.4375 3.97825 20.0072C-0.448027 15.5768 -0.444752 8.39724 3.98556 3.97096C8.41587 -0.455313 15.5955 -0.452039 20.0218 3.97822C21.0745 5.03191 21.9094 6.28267 22.4786 7.65907C23.0478 9.03546 23.3403 10.5105 23.3394 12C23.3395 13.4891 23.0462 14.9637 22.4765 16.3395C21.9067 17.7153 21.0715 18.9655 20.0185 20.0185Z" fill="#3B3B3B"/>
<path d="M18.824 15.4583L16.5481 13.1904C16.0315 12.6726 15.193 12.6716 14.6753 13.1882L14.673 13.1904L13.369 14.4944C13.3212 14.5423 13.2581 14.5718 13.1907 14.5778C13.1233 14.5837 13.0559 14.5656 13.0005 14.5268C12.2868 14.028 11.6187 13.467 11.004 12.8502C10.4535 12.3009 9.94704 11.7092 9.48937 11.0805C9.44924 11.0258 9.43002 10.9586 9.43522 10.8909C9.44042 10.8233 9.46968 10.7598 9.5177 10.7119L10.8541 9.37552C11.3701 8.85856 11.3701 8.0215 10.8541 7.50453L8.57818 5.22859C8.05372 4.72719 7.22761 4.72719 6.70315 5.22859L5.98231 5.94943C4.89367 7.02582 4.50504 8.62412 4.97796 10.0802C5.33086 11.1455 5.82968 12.1567 6.46017 13.0851C7.02777 13.9362 7.67896 14.7285 8.40405 15.4502C9.19237 16.2441 10.0656 16.949 11.008 17.552C12.044 18.228 13.1815 18.7339 14.3774 19.0504C14.6848 19.1262 15.0003 19.1642 15.3169 19.1638C16.4024 19.1571 17.4408 18.7202 18.2044 17.9488L18.8241 17.3292C19.34 16.8123 19.34 15.9752 18.824 15.4583ZM18.2505 16.7769L18.2489 16.7785L18.2529 16.7664L17.6333 17.386C17.2419 17.7824 16.7549 18.0711 16.2193 18.2243C15.6837 18.3776 15.1176 18.3901 14.5757 18.2607C13.4655 17.9636 12.41 17.4905 11.4493 16.8595C10.5568 16.2891 9.72975 15.6223 8.98304 14.8711C8.29601 14.1891 7.67874 13.4402 7.14039 12.6356C6.55153 11.7699 6.08543 10.8268 5.75537 9.83316C5.56985 9.26085 5.54735 8.64818 5.69041 8.0638C5.83347 7.47942 6.13643 6.94642 6.56533 6.52452L7.28618 5.80368C7.48659 5.60237 7.81225 5.60165 8.01352 5.80207L8.01513 5.80368L10.2911 8.07963C10.4924 8.28005 10.4931 8.60571 10.2927 8.80698L10.2911 8.80859L8.95466 10.145C8.5712 10.5243 8.52298 11.127 8.84128 11.5624C9.32466 12.2258 9.85954 12.85 10.441 13.4294C11.0892 14.0804 11.7939 14.6727 12.5468 15.1992C12.9819 15.5026 13.5717 15.4514 13.948 15.0777L15.2399 13.7655C15.4403 13.5642 15.7659 13.5635 15.9672 13.7639L15.9688 13.7655L18.2489 16.0496C18.4502 16.25 18.4509 16.5756 18.2505 16.7769Z" fill="#3B3B3B"/>
</svg>
