<svg width="18" height="19" viewBox="0 0 18 19" fill="none" xmlns="http://www.w3.org/2000/svg">
<path fill-rule="evenodd" clip-rule="evenodd" d="M12.4142 17.0996C11.3342 17.0599 8.27349 16.6369 5.06799 13.4321C1.86324 10.2266 1.44099 7.16661 1.40049 6.08586C1.34049 4.43886 2.60199 2.83911 4.05924 2.21436C4.23473 2.13858 4.42689 2.10973 4.61689 2.13064C4.80689 2.15154 4.98819 2.22149 5.14299 2.33361C6.34299 3.20811 7.17099 4.53111 7.88199 5.57136C8.03843 5.7999 8.10532 6.07802 8.06991 6.3527C8.0345 6.62739 7.89928 6.87945 7.68999 7.06086L6.22674 8.14761C6.15605 8.19866 6.10629 8.27363 6.0867 8.3586C6.06711 8.44357 6.07903 8.53276 6.12024 8.60961C6.45174 9.21186 7.04124 10.1089 7.71624 10.7839C8.39199 11.4589 9.33099 12.0874 9.97524 12.4564C10.056 12.5017 10.1511 12.5144 10.2409 12.4918C10.3308 12.4692 10.4085 12.413 10.4582 12.3349L11.4107 10.8851C11.5859 10.6525 11.8442 10.4967 12.1316 10.4502C12.4191 10.4038 12.7133 10.4704 12.9527 10.6361C14.008 11.3666 15.2395 12.1804 16.141 13.3346C16.2622 13.4905 16.3393 13.6762 16.3643 13.8721C16.3892 14.068 16.361 14.267 16.2827 14.4484C15.655 15.9131 14.0665 17.1604 12.4142 17.0996Z" fill="#CCCCCC"/>
</svg>
