<svg width="17" height="17" viewBox="0 0 17 17" fill="none" xmlns="http://www.w3.org/2000/svg">
<g clip-path="url(#clip0_471_160)">
<path fill-rule="evenodd" clip-rule="evenodd" d="M8.51772 0.0356445C13.0445 0.0356445 16.7141 3.70531 16.7141 8.23207C16.7141 12.7588 13.0445 16.4285 8.51772 16.4285C3.99095 16.4285 0.321289 12.7588 0.321289 8.23207C0.321289 3.70531 3.99095 0.0356445 8.51772 0.0356445ZM5.63398 7.4602C5.63404 7.42422 5.62699 7.38858 5.61325 7.35533C5.5995 7.32207 5.57933 7.29186 5.55389 7.26642C5.52845 7.24098 5.49823 7.2208 5.46498 7.20706C5.43173 7.19332 5.39609 7.18627 5.36011 7.18632H5.35691C5.28427 7.18632 5.21461 7.21518 5.16325 7.26654C5.11188 7.3179 5.08303 7.38756 5.08303 7.4602C5.08303 7.53284 5.11188 7.6025 5.16325 7.65386C5.21461 7.70522 5.28427 7.73408 5.35691 7.73408H5.36011C5.39609 7.73413 5.43173 7.72708 5.46498 7.71334C5.49823 7.6996 5.52845 7.67942 5.55389 7.65398C5.57933 7.62854 5.5995 7.59833 5.61325 7.56507C5.62699 7.53182 5.63404 7.49618 5.63398 7.4602ZM3.31491 6.60111V13.3353H6.50527V6.60111H3.31491ZM9.11049 12.7738C9.68757 12.8826 10.2703 12.9588 10.856 13.0019C11.234 13.0267 11.6264 13.0335 12.0034 12.9906C12.3321 12.9532 12.793 12.8588 13.0232 12.5949C13.0949 12.5151 13.1434 12.4172 13.1638 12.3119C13.2108 12.0881 13.1574 11.8329 13.0876 11.6198C13.0658 11.5533 13.0704 11.4809 13.1005 11.4177C13.1305 11.3545 13.1836 11.3052 13.2489 11.2801C13.4534 11.2011 13.6382 11.0613 13.6987 10.8409C13.7683 10.5875 13.655 10.3215 13.5006 10.1232C13.4599 10.0707 13.4396 10.0053 13.4434 9.93894C13.4472 9.87261 13.4749 9.80989 13.5213 9.76237C13.5888 9.68999 13.6412 9.60486 13.6753 9.51196C13.7095 9.41906 13.7247 9.32028 13.7202 9.22141C13.7181 9.11595 13.6946 9.01201 13.6511 8.91592C13.6076 8.81983 13.545 8.73359 13.4671 8.66245C13.4148 8.61477 13.383 8.54873 13.3783 8.47813C13.3735 8.40753 13.3963 8.33784 13.4418 8.28362C13.524 8.18622 13.5766 8.07208 13.5624 7.94254C13.5361 7.70276 13.3056 7.47829 13.126 7.3377L13.1184 7.33178L13.1097 7.32755C12.9351 7.24271 12.6715 7.21258 12.4811 7.19779C12.2709 7.18146 12.0584 7.17877 11.8476 7.18197C11.5396 7.18661 11.231 7.20461 10.924 7.229C10.8677 7.23353 10.8113 7.22075 10.7624 7.19237C10.5813 7.08595 10.4797 6.9054 10.4567 6.6986C10.4336 6.49014 10.4872 6.26762 10.5555 6.07203C10.5627 6.05139 10.5724 6.0317 10.5843 6.01337C10.9996 5.37411 11.0959 4.44772 11.1041 3.70364C11.1053 3.55366 11.0473 3.40924 10.9428 3.30166C10.8383 3.19408 10.6956 3.13199 10.5457 3.12884H10.544C10.4982 3.12884 10.4523 3.12884 10.4066 3.13015C10.3882 3.13069 10.3701 3.13492 10.3534 3.1426C10.3367 3.15028 10.3217 3.16125 10.3093 3.17485C10.297 3.18844 10.2874 3.2044 10.2814 3.22175C10.2753 3.23911 10.2728 3.25751 10.274 3.27586C10.3229 4.03051 9.97847 4.81323 9.60915 5.45003C9.19267 6.16821 8.67425 6.82856 8.1531 7.47288L8.09246 7.54786C8.05422 7.59526 8.00127 7.62857 7.94199 7.64253C7.8827 7.65648 7.82046 7.65029 7.76509 7.62493C7.58195 7.54133 7.35133 7.50781 7.15228 7.48988L7.0528 7.48095V12.6366L7.14302 12.6376C7.52774 12.642 7.91304 12.6579 8.29667 12.6866C8.56334 12.7066 8.83434 12.7315 9.09877 12.7719L9.10136 12.7723C9.10447 12.7729 9.10748 12.7734 9.11049 12.7738Z" fill="#1496E6"/>
</g>
<defs>
<clipPath id="clip0_471_160">
<rect width="16.3929" height="16.3929" fill="white" transform="translate(0.321289 0.0356445)"/>
</clipPath>
</defs>
</svg>
