<svg width="34" height="34" viewBox="0 0 34 34" fill="none" xmlns="http://www.w3.org/2000/svg">
<circle cx="17" cy="17" r="17" fill="#0599C9"/>
<path d="M9.22383 16.5455V22.9868H11.9508L12.0885 23.003C14.6202 23.5934 16.2978 24.0191 17.1339 24.2828C18.2445 24.6329 18.6585 24.7184 19.4118 24.7688C19.9752 24.8075 20.6151 24.5906 20.9067 24.2936C21.0678 24.1298 21.1884 23.7932 21.2361 23.2712C21.246 23.1618 21.2852 23.057 21.3494 22.9678C21.4137 22.8787 21.5008 22.8085 21.6015 22.7645C21.8256 22.6673 22.0119 22.5089 22.1676 22.2785C22.3116 22.0679 22.4052 21.6755 22.4223 21.1076C22.4254 21.0032 22.455 20.9013 22.5083 20.8116C22.5617 20.7218 22.6371 20.6471 22.7274 20.5946C23.2512 20.2913 23.5104 19.9493 23.5644 19.5479C23.6238 19.1042 23.4798 18.6047 23.1027 18.0359C23.0143 17.9025 22.9813 17.7399 23.0109 17.5826C23.0405 17.4253 23.1303 17.2857 23.2611 17.1935C23.6221 16.9397 23.82 16.5869 23.8695 16.0865C23.9487 15.2891 23.4402 14.6996 22.2891 14.5817C21.2639 14.4803 20.2288 14.5666 19.2345 14.8364C19.1218 14.8659 19.0029 14.8625 18.8919 14.8268C18.781 14.791 18.6826 14.7243 18.6083 14.6344C18.534 14.5446 18.4868 14.4355 18.4725 14.3198C18.4581 14.2041 18.4771 14.0867 18.5271 13.9814C18.9771 13.0292 19.2273 12.2435 19.2858 11.6351C19.3623 10.8278 19.176 10.2428 18.7404 9.76042C18.4101 9.39502 17.8818 9.18622 17.6838 9.22942C17.4228 9.28522 17.2527 9.43642 17.0313 9.96562C16.9008 10.2788 16.8378 10.5452 16.7298 11.1671C16.6263 11.7575 16.5696 12.0239 16.4517 12.3731C16.0962 13.4315 15.2241 14.5286 14.0532 15.2855C13.2326 15.8154 12.3432 16.2302 11.4099 16.5185C11.3516 16.5365 11.2909 16.5456 11.2299 16.5455H9.22383ZM9.18603 24.2135C8.89533 24.2216 8.63433 24.1568 8.41563 24.0038C8.13663 23.8085 8.00523 23.5007 8.00253 23.1461L8.00523 16.5554C7.97463 16.2044 8.07813 15.8822 8.32293 15.6428C8.55243 15.4178 8.85213 15.3116 9.16893 15.3188H11.1354C11.9309 15.0654 12.6893 14.7077 13.3908 14.255C14.334 13.6448 15.0288 12.77 15.2943 11.9816C15.3852 11.7098 15.4338 11.4848 15.5256 10.9556C15.6498 10.2455 15.7272 9.91522 15.9054 9.49042C16.2744 8.60662 16.7586 8.17462 17.4264 8.02972C18.0834 7.88752 19.0401 8.26642 19.6449 8.93602C20.3154 9.67762 20.6115 10.6055 20.5017 11.7521C20.4549 12.2453 20.3181 12.797 20.0931 13.4117C20.8615 13.2997 21.6408 13.2828 22.4133 13.3613C24.2196 13.5458 25.234 14.7221 25.0864 16.2089C25.0216 16.8497 24.7893 17.3942 24.3942 17.8217C24.7263 18.4616 24.8587 19.0943 24.7759 19.7117C24.6805 20.4227 24.2844 21.0149 23.6256 21.4748C23.5743 22.0985 23.4312 22.5962 23.1774 22.9688C22.9775 23.2699 22.7165 23.5256 22.4115 23.7194C22.3143 24.335 22.11 24.8165 21.7761 25.1549C21.2226 25.7183 20.2335 26.054 19.3299 25.9928C18.4722 25.9352 17.9646 25.8308 16.7676 25.4528C15.9783 25.2035 14.3439 24.7895 11.8806 24.2135H9.18603ZM10.7169 16.2656C10.7167 16.1851 10.7323 16.1053 10.763 16.0309C10.7936 15.9564 10.8387 15.8887 10.8955 15.8317C10.9524 15.7747 11.0199 15.7295 11.0943 15.6986C11.1687 15.6677 11.2484 15.6518 11.3289 15.6518C11.4093 15.6521 11.4888 15.6681 11.563 15.6991C11.6372 15.7301 11.7045 15.7754 11.7612 15.8323C11.8178 15.8893 11.8627 15.9569 11.8932 16.0313C11.9238 16.1056 11.9394 16.1853 11.9391 16.2656V23.1758C11.9392 23.2562 11.9235 23.3358 11.8929 23.4101C11.8622 23.4844 11.8173 23.5519 11.7605 23.6089C11.7038 23.6658 11.6364 23.7109 11.5622 23.7418C11.488 23.7727 11.4084 23.7886 11.328 23.7887C11.2477 23.7886 11.1681 23.7727 11.0939 23.7418C11.0197 23.7109 10.9523 23.6658 10.8955 23.6089C10.8388 23.5519 10.7938 23.4844 10.7632 23.4101C10.7325 23.3358 10.7168 23.2562 10.7169 23.1758V16.2656Z" fill="white" stroke="white" stroke-width="0.2"/>
</svg>
