<svg width="70" height="71" viewBox="0 0 70 71" fill="none" xmlns="http://www.w3.org/2000/svg">
<rect y="0.5" width="70" height="70" rx="8" fill="#0599C9"/>
<path d="M55.6327 39.4239H54.2866V34.0395C54.2843 32.1822 52.7791 30.6767 50.9214 30.6743H49.012L50.8294 27.5253C51.0973 27.0611 51.1698 26.5096 51.0312 25.9919C50.9624 25.7357 50.8437 25.4955 50.6821 25.2851C50.5204 25.0747 50.3188 24.8983 50.0889 24.7658L34.93 16.0162C33.9638 15.4658 32.735 15.7961 32.1751 16.7566L24.1429 30.6743H18.6152C16.7575 30.6767 15.2524 32.1822 15.25 34.0395V52.8848C15.2524 54.7426 16.7575 56.2477 18.6152 56.25H50.9214C52.7791 56.2477 54.2843 54.7426 54.2866 52.8848V47.5004H55.6327V39.4239ZM49.6657 26.8517L45.9026 33.3666H33.7324L40.8713 20.9981L49.4191 25.9329C49.5718 26.0238 49.683 26.1706 49.729 26.3422C49.775 26.5139 49.7524 26.6966 49.6657 26.8517ZM29.0691 33.3666L37.377 18.9809L39.7058 20.327L32.179 33.3666H29.0691ZM33.3456 17.4298C33.4349 17.2756 33.5817 17.1632 33.7538 17.1171C33.9258 17.071 34.1091 17.0951 34.2635 17.184L36.2107 18.3079L27.515 33.3665H24.1422L33.3456 17.4298ZM52.9405 52.8849C52.9405 54 52.0364 54.9041 50.9214 54.9041H18.6152C17.5002 54.9041 16.5961 54 16.5961 52.8849V34.0397C16.5961 32.9246 17.5002 32.0206 18.6152 32.0206H23.3657L22.5862 33.3666H19.2883V34.7127H50.2483V33.3666H47.4566L48.2345 32.0206H50.9214C52.0364 32.0206 52.9405 32.9246 52.9405 34.0397V39.4241H45.537C43.6792 39.4263 42.1741 40.9318 42.1718 42.7893V44.1354C42.1741 45.9931 43.6792 47.4982 45.537 47.5006H52.9405V52.8849ZM54.2866 46.1545H45.537C44.4219 46.1545 43.5179 45.2504 43.5179 44.1354V42.7893C43.5179 41.6742 44.4219 40.7701 45.537 40.7701H54.2866V46.1545Z" fill="white"/>
<path d="M44.1904 43.4625C44.1904 44.5776 45.0945 45.4816 46.2096 45.4816C47.3246 45.4816 48.2287 44.5776 48.2287 43.4625C48.2287 42.3473 47.3246 41.4434 46.2096 41.4434C45.0945 41.4434 44.1904 42.3475 44.1904 43.4625ZM46.2096 42.7894C46.3881 42.7894 46.5593 42.8604 46.6855 42.9866C46.8117 43.1128 46.8826 43.284 46.8826 43.4625C46.8826 43.641 46.8117 43.8122 46.6855 43.9385C46.5593 44.0647 46.3881 44.1356 46.2096 44.1356C46.0311 44.1356 45.8599 44.0647 45.7336 43.9385C45.6074 43.8123 45.5365 43.6411 45.5365 43.4626C45.5365 43.2841 45.6074 43.1129 45.7336 42.9867C45.8599 42.8604 46.0311 42.7894 46.2096 42.7894Z" fill="white"/>
</svg>
