<svg width="61" height="60" viewBox="0 0 61 60" fill="none" xmlns="http://www.w3.org/2000/svg">
<circle cx="30.5" cy="30" r="30" fill="#F5CA16"/>
<g clip-path="url(#clip0_359_354)">
<path d="M51.0396 29.4682L50.9893 29.401C50.6133 28.8997 50.0632 28.5747 49.4402 28.4858C48.8171 28.3967 48.1981 28.555 47.6968 28.9309L42.7627 32.6307C42.7085 31.3813 41.6751 30.3815 40.4126 30.3815H31.045C30.1909 30.3815 29.4314 30.481 28.5813 30.7041L21.9478 32.4582L21.9324 31.0864C21.9306 30.9301 21.8673 30.7808 21.7562 30.6709C21.645 30.5609 21.495 30.4993 21.3387 30.4993H14.0938C14.0152 30.4993 13.9375 30.5149 13.865 30.5451C13.7925 30.5754 13.7268 30.6197 13.6716 30.6756C13.6163 30.7314 13.5727 30.7976 13.5433 30.8705C13.5139 30.9433 13.4992 31.0212 13.5 31.0997L13.6452 44.0603C13.647 44.2166 13.7103 44.3659 13.8215 44.4759C13.9326 44.5858 14.0826 44.6474 14.239 44.6474H21.4839C21.5624 44.6474 21.6402 44.6318 21.7126 44.6015C21.7851 44.5713 21.8509 44.5269 21.9061 44.4711C21.9613 44.4153 22.0049 44.349 22.0343 44.2762C22.0638 44.2034 22.0785 44.1255 22.0776 44.047L22.0556 42.0861C22.1183 42.0795 22.1795 42.0628 22.237 42.0369L25.5964 40.5223C26.7638 39.9963 27.9305 39.9023 29.1635 40.2345L34.1555 41.5787C37.1438 42.3838 39.9474 41.8378 42.0499 40.0411L50.5992 32.7372C51.6041 31.8786 51.7936 30.4733 51.0396 29.4682ZM14.8261 43.4599L14.6941 31.6867H20.7517L20.8835 43.4599H14.8261ZM49.8279 31.8344L41.2786 39.1383C39.4828 40.6728 37.0629 41.1322 34.4642 40.4322L29.4724 39.088C27.9637 38.6812 26.5363 38.7963 25.1084 39.4398L22.0414 40.8225L21.9615 33.6829L28.8839 31.8523C29.6405 31.6537 30.2868 31.5689 31.045 31.5689H40.4126C41.0549 31.5689 41.5775 32.0914 41.5775 32.7339V32.9506C41.5775 33.2767 41.4427 33.5721 41.2259 33.7838C41.2084 33.7981 41.1918 33.8135 41.1761 33.8298C40.9645 34.0143 40.6933 34.1158 40.4126 34.1155H32.3304C32.1741 34.1173 32.0247 34.1806 31.9148 34.2917C31.8049 34.4029 31.7433 34.5529 31.7433 34.7092C31.7433 34.8656 31.8049 35.0156 31.9148 35.1267C32.0247 35.2379 32.1741 35.3012 32.3304 35.303H40.4125C41.0186 35.303 41.5719 35.0724 41.9894 34.6946L48.4092 29.8808C48.6567 29.6952 48.9631 29.6171 49.2724 29.6613C49.5813 29.7053 49.8536 29.8659 50.0394 30.1136L50.0897 30.1807C50.4624 30.6775 50.3498 31.3885 49.8277 31.8344H49.8279ZM37.6673 29.621C41.601 29.621 44.8013 26.4207 44.8013 22.487C44.8013 18.5533 41.601 15.353 37.6674 15.353C33.7348 15.353 30.5355 18.5533 30.5355 22.4869C30.5355 26.4205 33.7348 29.621 37.6673 29.621ZM37.6673 16.5405C40.9463 16.5405 43.6138 19.208 43.6138 22.487C43.6138 25.766 40.9462 28.4336 37.6673 28.4336C34.3896 28.4336 31.7229 25.7659 31.7229 22.487C31.7229 19.2081 34.3896 16.5405 37.6673 16.5405ZM38.9858 24.1762C38.9858 23.4374 38.6125 23.2928 37.5459 23.0679C36.5972 22.868 35.1635 22.5658 35.1635 20.7977C35.1635 19.7264 35.9787 18.8257 37.0736 18.5823V18.0714C37.0736 17.7435 37.3394 17.4777 37.6674 17.4777C37.9953 17.4777 38.261 17.7435 38.261 18.0714V18.5821C39.3571 18.8255 40.1732 19.7263 40.1732 20.7978C40.1732 21.1257 39.9075 21.3915 39.5795 21.3915C39.2514 21.3915 38.9858 21.1257 38.9858 20.7977C38.9858 20.1948 38.3943 19.7043 37.6673 19.7043C36.9414 19.7043 36.3509 20.1948 36.3509 20.7977C36.3509 21.5366 36.7242 21.6812 37.7908 21.906C38.7395 22.106 40.1732 22.4082 40.1732 24.1762C40.1732 25.2476 39.3571 26.1484 38.261 26.3918V26.9026C38.261 27.2305 37.9953 27.4963 37.6673 27.4963C37.3393 27.4963 37.0735 27.2305 37.0735 26.9026V26.3917C35.9787 26.1482 35.1634 25.2475 35.1634 24.1762C35.1634 23.8483 35.4292 23.5825 35.7572 23.5825C36.0852 23.5825 36.3509 23.8483 36.3509 24.1762C36.3509 24.7791 36.9414 25.2696 37.6673 25.2696C38.3943 25.2696 38.9858 24.7791 38.9858 24.1762ZM18.4126 41.18C18.4126 41.5229 18.1328 41.8027 17.7878 41.8027C17.4449 41.8027 17.1651 41.5229 17.1651 41.18C17.1651 40.8372 17.4449 40.5573 17.7878 40.5573C18.1328 40.5573 18.4126 40.8372 18.4126 41.18Z" fill="black"/>
</g>
<defs>
<clipPath id="clip0_359_354">
<rect width="38" height="38" fill="white" transform="translate(13.5 11)"/>
</clipPath>
</defs>
</svg>
