<svg width="70" height="71" viewBox="0 0 70 71" fill="none" xmlns="http://www.w3.org/2000/svg">
<rect y="0.5" width="70" height="70" rx="8" fill="#0599C9"/>
<path d="M32.122 25.7051L30.7049 20.5919C30.3504 19.3126 29.1005 18.4712 27.5913 18.5008C25.4052 18.5418 23.5454 18.9034 22.0636 19.575C20.1208 20.4551 18.7855 21.8714 18.0945 23.7836L18.0489 23.9097C18.0166 23.999 18.0001 24.0932 18 24.1882V24.3223C17.9967 31.4883 21.2581 38.8617 26.9482 44.5518C32.6357 50.2393 40.0038 53.5001 47.1664 53.5001H47.3117C47.4067 53.5001 47.501 53.4835 47.5904 53.4512L47.7164 53.4056C49.6286 52.7147 51.0446 51.3793 51.9251 49.4365C52.5967 47.9547 52.9581 46.0949 52.9993 43.9088C53.0277 42.401 52.1875 41.1497 50.9083 40.7952L45.795 39.3781C44.8414 39.1138 43.9968 39.3629 43.4777 40.0617L41.4041 42.8542C39.0573 42.5246 36.0379 40.7411 33.3983 38.1013C30.7587 35.4615 28.975 32.4423 28.6454 30.0955L31.4379 28.0218C32.1371 27.503 32.3864 26.6583 32.122 25.7051ZM30.4601 26.7052L27.2934 29.0567C27.1835 29.1383 27.0958 29.2461 27.0382 29.3703C26.9806 29.4945 26.955 29.6311 26.9638 29.7677C27.1448 32.5909 29.1167 36.14 32.2386 39.2618C35.3605 42.3837 38.9096 44.3556 41.7327 44.5366C41.8693 44.5453 42.0059 44.5197 42.1301 44.4621C42.2542 44.4046 42.362 44.3169 42.4437 44.207L44.7952 41.0403C44.8389 40.9816 44.941 40.8442 45.3571 40.9594L50.4704 42.3764C51.1007 42.5511 51.371 43.2565 51.3591 43.8781C51.2773 48.1938 49.8674 50.8792 47.1676 51.8594H47.1665C40.4362 51.8594 33.49 48.7733 28.1084 43.3917C22.7268 38.0101 19.6406 31.0633 19.6406 24.3326C20.6208 21.6328 23.3063 20.2227 27.6223 20.1411C28.243 20.129 28.9493 20.3996 29.124 21.0298L30.541 26.1431C30.6564 26.5591 30.5188 26.6613 30.4601 26.7048V26.7052ZM53 35.1026C53 35.3202 52.9136 35.5289 52.7597 35.6827C52.6059 35.8365 52.3972 35.923 52.1797 35.923C51.9621 35.923 51.7535 35.8365 51.5996 35.6827C51.4458 35.5289 51.3594 35.3202 51.3594 35.1026C51.3594 26.8526 44.6474 20.1407 36.3974 20.1407C36.1799 20.1407 35.9712 20.0543 35.8174 19.9004C35.6635 19.7466 35.5771 19.5379 35.5771 19.3204C35.5771 19.1028 35.6635 18.8942 35.8174 18.7403C35.9712 18.5865 36.1799 18.5001 36.3974 18.5001C38.5777 18.5001 40.7366 18.9295 42.751 19.7638C44.7653 20.5982 46.5956 21.8211 48.1372 23.3628C49.6789 24.9045 50.9019 26.7348 51.7362 28.7491C52.5706 30.7634 53 32.9224 53 35.1026ZM35.5771 24.1743C35.5771 23.9567 35.6635 23.7481 35.8174 23.5943C35.9712 23.4404 36.1799 23.354 36.3974 23.354C42.8756 23.354 48.1461 28.6245 48.1461 35.1026C48.1461 35.3202 48.0596 35.5289 47.9058 35.6827C47.752 35.8365 47.5433 35.923 47.3258 35.923C47.1082 35.923 46.8995 35.8365 46.7457 35.6827C46.5919 35.5289 46.5054 35.3202 46.5054 35.1026C46.5054 29.5291 41.971 24.9946 36.3974 24.9946C36.1799 24.9946 35.9712 24.9082 35.8174 24.7544C35.6635 24.6005 35.5771 24.3919 35.5771 24.1743ZM35.5771 29.0283C35.5771 28.8107 35.6635 28.6021 35.8174 28.4482C35.9712 28.2944 36.1799 28.208 36.3974 28.208C38.2254 28.21 39.9778 28.9371 41.2704 30.2297C42.5629 31.5222 43.29 33.2747 43.2921 35.1026C43.2921 35.3202 43.2056 35.5289 43.0518 35.6827C42.898 35.8365 42.6893 35.923 42.4718 35.923C42.2542 35.923 42.0455 35.8365 41.8917 35.6827C41.7379 35.5289 41.6514 35.3202 41.6514 35.1026C41.6499 33.7097 41.0958 32.3742 40.1108 31.3892C39.1259 30.4042 37.7904 29.8502 36.3974 29.8486C36.1799 29.8486 35.9712 29.7622 35.8174 29.6083C35.6635 29.4545 35.5771 29.2459 35.5771 29.0283Z" fill="white"/>
</svg>
