<svg width="70" height="71" viewBox="0 0 70 71" fill="none" xmlns="http://www.w3.org/2000/svg">
<rect y="0.5" width="70" height="70" rx="8" fill="#0599C9"/>
<path d="M54.9688 24.0577L35.5587 14.6872C35.4738 14.6463 35.3807 14.625 35.2864 14.625C35.1922 14.625 35.0991 14.6463 35.0142 14.6872L15.6039 24.0577C15.4979 24.1089 15.4084 24.189 15.3458 24.2887C15.2832 24.3885 15.25 24.5038 15.25 24.6216V47.3784C15.25 47.4962 15.2832 47.6115 15.3458 47.7113C15.4084 47.811 15.4979 47.8911 15.6039 47.9423L35.0141 57.3127C35.099 57.3537 35.1921 57.375 35.2864 57.375C35.3807 57.375 35.4737 57.3537 35.5587 57.3127L54.9688 47.9423C55.0749 47.8911 55.1644 47.811 55.227 47.7113C55.2896 47.6115 55.3228 47.4962 55.3228 47.3784V24.6217C55.3228 24.5039 55.2896 24.3885 55.227 24.2888C55.1644 24.189 55.0749 24.1089 54.9688 24.0577ZM35.2864 15.9466L53.2562 24.6216L48.0471 27.1363C48.0141 27.1106 47.9786 27.0882 47.9411 27.0695L30.0933 18.4536L35.2864 15.9466ZM28.6791 19.1616L46.6227 27.824L42.9477 29.5982L25.0114 20.9393L28.6791 19.1616ZM47.0426 29.012V35.5703L43.6098 37.2275V30.6692L47.0426 29.012ZM54.0703 46.9855L35.9126 55.751V34.3851L40.2438 32.2941C40.3179 32.2584 40.3841 32.2084 40.4389 32.147C40.4936 32.0856 40.5357 32.0141 40.5628 31.9364C40.5899 31.8588 40.6014 31.7766 40.5967 31.6945C40.592 31.6124 40.5712 31.532 40.5355 31.4579C40.4997 31.3839 40.4497 31.3176 40.3883 31.2629C40.327 31.2081 40.2554 31.166 40.1777 31.1389C40.1001 31.1118 40.0179 31.1003 39.9358 31.105C39.8537 31.1097 39.7733 31.1305 39.6992 31.1663L35.2864 33.2967L33.55 32.4584C33.476 32.4226 33.3956 32.4018 33.3135 32.3971C33.2314 32.3924 33.1491 32.4039 33.0715 32.431C32.9938 32.458 32.9223 32.5002 32.8609 32.5549C32.7995 32.6097 32.7495 32.676 32.7138 32.75C32.678 32.8241 32.6572 32.9045 32.6525 32.9866C32.6478 33.0687 32.6593 33.1509 32.6864 33.2285C32.7135 33.3062 32.7556 33.3778 32.8104 33.4391C32.8651 33.5005 32.9314 33.5505 33.0054 33.5863L34.6602 34.3851V55.751L16.5024 46.9853V25.6193L30.3294 32.2944C30.4141 32.3355 30.507 32.3568 30.6012 32.3569C30.7431 32.357 30.8808 32.309 30.9919 32.2206C31.1029 32.1323 31.1807 32.0088 31.2124 31.8705C31.244 31.7321 31.2278 31.5872 31.1663 31.4593C31.1048 31.3314 31.0017 31.2282 30.8739 31.1665L17.3166 24.6216L23.5375 21.6184L42.3487 30.6997C42.3514 30.7035 42.3545 30.707 42.3573 30.7107V38.2253C42.3574 38.3313 42.3843 38.4355 42.4356 38.5283C42.4869 38.621 42.561 38.6992 42.6507 38.7556C42.7405 38.8119 42.8431 38.8446 42.9489 38.8505C43.0548 38.8563 43.1604 38.8353 43.2558 38.7892L47.9411 36.5274C48.0471 36.4762 48.1366 36.3961 48.1992 36.2964C48.2618 36.1966 48.295 36.0812 48.295 35.9635V28.4075L54.0703 25.6194V46.9855Z" fill="white"/>
<path d="M21.6698 44.5566L18.8214 43.1815C18.6718 43.1093 18.4997 43.0994 18.3428 43.1541C18.186 43.2088 18.0574 43.3236 17.9851 43.4732C17.9129 43.6227 17.9031 43.7948 17.9578 43.9517C18.0125 44.1085 18.1272 44.2372 18.2768 44.3094L21.1253 45.6845C21.21 45.7255 21.3029 45.7469 21.397 45.7469C21.5149 45.747 21.6304 45.7138 21.7302 45.6511C21.8301 45.5885 21.9102 45.499 21.9614 45.3928C21.9972 45.3188 22.018 45.2384 22.0227 45.1563C22.0274 45.0742 22.0159 44.992 21.9888 44.9143C21.9617 44.8367 21.9196 44.7651 21.8649 44.7037C21.8102 44.6423 21.7439 44.5924 21.6698 44.5566ZM24.2914 42.8502L18.8253 40.2114C18.6761 40.1419 18.5055 40.1339 18.3505 40.1892C18.1954 40.2445 18.0684 40.3586 17.9969 40.5069C17.9253 40.6551 17.915 40.8255 17.9681 40.9813C18.0213 41.1371 18.1336 41.2657 18.2808 41.3393L23.7469 43.9781C23.8316 44.0192 23.9245 44.0405 24.0187 44.0406C24.1606 44.0408 24.2984 43.9928 24.4095 43.9044C24.5206 43.816 24.5983 43.6926 24.63 43.5542C24.6617 43.4158 24.6455 43.2708 24.5839 43.1429C24.5224 43.015 24.4192 42.9118 24.2914 42.8502Z" fill="white"/>
</svg>
