<svg width="61" height="61" viewBox="0 0 61 61" fill="none" xmlns="http://www.w3.org/2000/svg">
<circle cx="30.5" cy="30.5" r="30" fill="#F5CA16"/>
<path d="M43.9375 33.4063V21.75C43.9379 21.6399 43.9093 21.5316 43.8544 21.4361C43.7995 21.3406 43.7204 21.2614 43.625 21.2063L28.4688 12.4563C28.3737 12.4014 28.266 12.3726 28.1563 12.3726C28.0465 12.3726 27.9388 12.4014 27.8438 12.4563L12.6875 21.2063C12.5921 21.2614 12.513 21.3406 12.4581 21.4361C12.4032 21.5316 12.3746 21.6399 12.375 21.75V39.25C12.3746 39.3602 12.4032 39.4685 12.4581 39.5639C12.513 39.6594 12.5921 39.7387 12.6875 39.7938L27.8438 48.5438C27.9388 48.5986 28.0465 48.6275 28.1563 48.6275C28.266 48.6275 28.3737 48.5986 28.4688 48.5438L34.1625 45.2563C34.8722 46.2506 35.8012 47.0683 36.8775 47.6461C37.9539 48.2239 39.1487 48.5463 40.3696 48.5883C41.5905 48.6303 42.8047 48.3908 43.9182 47.8884C45.0317 47.386 46.0147 46.6341 46.7911 45.691C47.5675 44.7478 48.1165 43.6386 48.3955 42.4493C48.6745 41.26 48.6762 40.0224 48.4003 38.8323C48.1244 37.6423 47.5784 36.5316 46.8046 35.5864C46.0307 34.6412 45.0497 33.8867 43.9375 33.3813V33.4063ZM28.1563 13.7188L42.0625 21.75L35.0875 25.775L22.175 17.175L28.1563 13.7188ZM28.1563 29.7813L14.25 21.75L20.9688 17.8688L33.875 26.475L28.1563 29.7813ZM13.625 22.8313L27.5313 30.8625V46.9188L13.625 38.8875V22.8313ZM28.7813 46.9188V30.8625L34.4063 27.5938V32.4625C34.4063 32.6283 34.4721 32.7873 34.5893 32.9045C34.7065 33.0217 34.8655 33.0875 35.0313 33.0875C35.197 33.0875 35.356 33.0217 35.4732 32.9045C35.5904 32.7873 35.6563 32.6283 35.6563 32.4625V26.875L42.6563 22.8313V32.9625C41.9943 32.7816 41.3113 32.6892 40.625 32.6875C39.2725 32.691 37.9432 33.0392 36.7626 33.6992C35.5821 34.3593 34.5893 35.3094 33.878 36.4598C33.1668 37.6102 32.7605 38.9229 32.6977 40.274C32.6348 41.625 32.9174 42.9698 33.5188 44.1813L28.7813 46.9188ZM40.6563 47.375C39.3274 47.375 38.0284 46.981 36.9235 46.2427C35.8186 45.5045 34.9575 44.4551 34.4489 43.2274C33.9404 41.9998 33.8074 40.6488 34.0666 39.3455C34.3258 38.0422 34.9657 36.8451 35.9054 35.9054C36.845 34.9658 38.0422 34.3259 39.3455 34.0666C40.6488 33.8074 41.9997 33.9404 43.2274 34.449C44.4551 34.9575 45.5044 35.8187 46.2427 36.9236C46.981 38.0284 47.375 39.3274 47.375 40.6563C47.3733 42.4377 46.6649 44.1457 45.4053 45.4053C44.1456 46.665 42.4377 47.3734 40.6563 47.375Z" fill="black"/>
<path d="M43.6248 37.4125L39.7498 42.525L37.7186 40.1375C37.6116 40.0091 37.4581 39.9283 37.2916 39.9131C37.1252 39.8979 36.9595 39.9494 36.8311 40.0563C36.7026 40.1632 36.6219 40.3168 36.6066 40.4832C36.5914 40.6496 36.6429 40.8153 36.7498 40.9438L39.2498 43.9313C39.3085 43.9999 39.3813 44.055 39.4633 44.0927C39.5453 44.1305 39.6345 44.15 39.7248 44.15C39.8187 44.1472 39.9106 44.1232 39.994 44.0799C40.0773 44.0367 40.1498 43.9752 40.2061 43.9L44.5498 38.1688C44.6312 38.1146 44.6988 38.0421 44.7471 37.957C44.7954 37.872 44.823 37.7768 44.8278 37.6791C44.8326 37.5814 44.8144 37.484 44.7747 37.3946C44.735 37.3053 44.6749 37.2265 44.5992 37.1646C44.5235 37.1027 44.4343 37.0594 44.3388 37.0382C44.2433 37.0171 44.1442 37.0186 44.0494 37.0427C43.9547 37.0669 43.8669 37.1129 43.7931 37.1771C43.7194 37.2413 43.6617 37.322 43.6248 37.4125Z" fill="black"/>
</svg>
